<svg version="1.2" xmlns="http://www.w3.org/2000/svg" viewBox="0 0 842 595" width="2000" height="1413">
	<style>
		.s0 { fill: #202a44 } 
	</style>
	<g id="Layer 1">
		<g id="&lt;Group&gt;">
			<g id="&lt;Group&gt;">
				<path id="&lt;Compound Path&gt;" fill-rule="evenodd" class="s0" d="m297.07 336.05l7.54-15.95h1.7l7.53 15.95h-2.04l-1.48-3.1h-9.75l-1.48 3.1zm4.24-4.73h8.27l-2.68-5.61-1.46-3.35q-0.71 1.9-1.42 3.37z"/>
				<path id="&lt;Compound Path&gt;" class="s0" d="m320.14 336.13l-5.29-12.07h1.95l3.34 7.63 0.87 2.39q0.39-1.33 0.86-2.36l3.35-7.66h1.95l-5.3 12.07z"/>
				<path id="&lt;Compound Path&gt;" class="s0" d="m331.13 331.47v-7.41h1.87v7.02q0 3.4 3.08 3.4 1.48 0 2.44-1.01 0.96-1.01 0.96-2.74v-6.67h1.87v11.99h-1.87v-1.85q-1.28 2.1-3.87 2.1-2.19 0-3.34-1.34-1.14-1.35-1.14-3.49z"/>
				<path id="&lt;Compound Path&gt;" class="s0" d="m347.06 336.05v-16.2h1.88v10.81l5.81-6.6h2.41l-4.78 5.32 5.62 6.67h-2.42l-4.38-5.37-2.26 2.59v2.78z"/>
				<path id="&lt;Compound Path&gt;" fill-rule="evenodd" class="s0" d="m360.9 330.07q0.01-2.61 1.67-4.44 1.66-1.82 4.12-1.82 2.88 0 4.39 2.32v-2.07h1.87v11.99h-1.87v-2.04q-1.48 2.29-4.39 2.29-2.46 0-4.12-1.82-1.66-1.83-1.67-4.41zm3.12-3.15q-1.19 1.28-1.19 3.15 0 1.87 1.19 3.14 1.2 1.27 2.97 1.27 1.72 0 2.9-1.26 1.19-1.25 1.19-3.15 0-1.87-1.18-3.15-1.16-1.28-2.91-1.29-1.77 0.01-2.97 1.29z"/>
				<path id="&lt;Compound Path&gt;" class="s0" d="m379.15 332.46v-6.8h-1.8v-1.6h1.8v-2.66l1.87-0.3v2.96h4.11v1.6h-4.11v6.45q0 2.51 1.7 2.51 0.49 0 0.99-0.17 0.49-0.17 0.74-0.32l0.24-0.17 0.62 1.45q-1.31 0.89-2.76 0.89-1.58 0-2.49-0.95-0.91-0.95-0.91-2.89z"/>
				<path id="&lt;Compound Path&gt;" class="s0" d="m389.96 336.05v-16.2h1.88v16.2z"/>
				<path id="&lt;Compound Path&gt;" class="s0" d="m397.55 336.05v-11.99h1.87v11.99z"/>
				<path id="&lt;Compound Path&gt;" class="s0" d="m405.13 336.05v-16.2h1.87v10.81l5.82-6.6h2.41l-4.78 5.32 5.62 6.67h-2.42l-4.38-5.37-2.27 2.59v2.78z"/>
				<path id="&lt;Compound Path&gt;" fill-rule="evenodd" class="s0" d="m437.47 336.05v-15.95h6.06q3.74-0.01 6.04 2.31 2.3 2.31 2.3 5.66 0 3.35-2.3 5.67-2.3 2.31-6.04 2.31zm1.96-1.75h3.97q2.86 0 4.63-1.76 1.77-1.76 1.77-4.47 0-2.7-1.77-4.47-1.77-1.76-4.63-1.76h-3.97z"/>
				<path id="&lt;Compound Path&gt;" fill-rule="evenodd" class="s0" d="m456.48 330.07q0-2.61 1.66-4.44 1.66-1.82 4.13-1.82 2.88 0 4.38 2.32v-2.07h1.87v11.99h-1.87v-2.04q-1.48 2.29-4.38 2.29-2.47 0-4.13-1.82-1.66-1.83-1.66-4.41zm3.11-3.15q-1.19 1.28-1.19 3.15 0 1.87 1.19 3.14 1.2 1.27 2.97 1.27 1.73 0 2.91-1.26 1.18-1.25 1.18-3.15 0-1.87-1.17-3.15-1.17-1.28-2.92-1.29-1.77 0.01-2.97 1.29z"/>
				<path id="&lt;Compound Path&gt;" class="s0" d="m474.23 336.05v-11.99h1.87v1.92q1.36-2.17 4.09-2.17 2.19 0 3.3 1.29 1.11 1.3 1.11 3.64v7.31h-1.87v-7.02q0-1.67-0.7-2.53-0.71-0.86-2.33-0.87-1.48 0-2.54 1.05-1.06 1.05-1.06 2.65v6.72z"/>
				<path id="&lt;Compound Path&gt;" class="s0" d="m490.07 336.05v-11.99h1.87v11.99z"/>
				<path id="&lt;Compound Path&gt;" class="s0" d="m499.42 340.61l0.55-0.89q0.93 0.59 2.04 0.59 0.79 0 1.26-0.38 0.46-0.38 0.47-0.87-0.01-0.42-0.32-0.63-0.32-0.21-0.77-0.21-0.42 0-0.83 0.19-0.43 0.2-0.62 0.47l-1.06-0.39 1.3-2.19q-2.78-0.1-4.4-1.87l0.91-1.51q1.5 1.56 3.77 1.56 1.28 0 2.14-0.51 0.86-0.5 0.86-1.32 0-0.41-0.23-0.74-0.24-0.32-0.72-0.54-0.48-0.22-0.88-0.34-0.41-0.13-1.1-0.3-1.01-0.24-1.61-0.45-0.61-0.21-1.3-0.61-0.69-0.39-1.01-0.99-0.32-0.61-0.32-1.45 0-1.52 1.33-2.47 1.34-0.95 2.98-0.95 2.2 0 4.14 1.33l-0.91 1.46q-1.4-0.97-3.2-0.97-0.96 0-1.69 0.46-0.72 0.45-0.72 1.12-0.01 0.39 0.19 0.69 0.2 0.3 0.68 0.5 0.48 0.22 0.81 0.3 0.34 0.09 1.05 0.26 0.98 0.22 1.64 0.45 0.65 0.24 1.36 0.65 0.72 0.4 1.07 1.04 0.36 0.64 0.36 1.5 0 1.56-1.14 2.49-1.15 0.94-2.8 1.13l-0.76 1.34q0.49-0.23 1.01-0.23 0.88 0 1.49 0.46 0.6 0.45 0.6 1.22 0 0.98-0.86 1.63-0.86 0.66-2.17 0.66-1.53 0-2.59-0.69z"/>
				<path id="&lt;Compound Path&gt;" class="s0" d="m511.74 336.05v-11.99h1.87v1.92q0.59-1.03 1.6-1.6 1.01-0.57 2.19-0.57 2.91 0 3.87 2.39 0.61-1.13 1.76-1.76 1.14-0.63 2.38-0.63 2.19 0 3.29 1.27 1.11 1.27 1.11 3.63v7.34h-1.87v-7.02q0-1.62-0.65-2.51-0.66-0.89-2.28-0.89-1.43 0.01-2.36 0.95-0.94 0.95-0.94 2.48v6.99h-1.87v-7.02q0-1.62-0.65-2.51-0.66-0.89-2.28-0.89-1.41 0.01-2.35 1.04-0.95 1.03-0.95 2.56v6.82z"/>
				<path id="&lt;Compound Path&gt;" fill-rule="evenodd" class="s0" d="m534.67 330.07q0-2.61 1.66-4.44 1.66-1.82 4.13-1.82 2.87 0 4.38 2.32v-2.07h1.87v11.99h-1.87v-2.04q-1.48 2.29-4.38 2.29-2.47 0-4.13-1.82-1.66-1.83-1.66-4.41zm3.11-3.15q-1.19 1.28-1.19 3.15 0 1.87 1.19 3.14 1.2 1.27 2.97 1.27 1.72 0 2.91-1.26 1.18-1.25 1.18-3.15 0-1.87-1.17-3.15-1.17-1.28-2.92-1.29-1.77 0.01-2.97 1.29z"/>
				<path id="&lt;Compound Path&gt;" class="s0" d="m552.42 336.05v-11.99h1.87v1.92q1.36-2.17 4.09-2.17 2.19 0 3.3 1.29 1.11 1.3 1.11 3.64v7.31h-1.87v-7.02q0-1.67-0.71-2.53-0.7-0.86-2.32-0.87-1.48 0-2.54 1.05-1.06 1.05-1.06 2.65v6.72z"/>
				<path id="&lt;Compound Path&gt;" class="s0" d="m568.26 336.05v-16.2h1.87v16.2z"/>
				<path id="&lt;Compound Path&gt;" class="s0" d="m575.84 336.05v-11.99h1.87v11.99z"/>
				<path id="&lt;Compound Path&gt;" class="s0" d="m583.42 336.05v-16.2h1.88v10.81l5.81-6.6h2.41l-4.78 5.32 5.62 6.67h-2.41l-4.39-5.37-2.26 2.59v2.78z"/>
			</g>
			<g id="&lt;Group&gt;">
				<g id="&lt;Group&gt;">
					<path id="&lt;Compound Path&gt;" class="s0" d="m317.06 290.77q3.02 2.72 4.53 3.6 1.51 0.87 2.94 1.06v0.23q-0.65 0-0.95 0.02-0.29 0.01-0.45 0.01-0.14 0.02-0.32 0.02-0.17 0-0.5 0-1.71 0-3-0.13-1.29-0.13-2.51-0.79-1.22-0.67-2.64-2.19l-10.96-10.47v7.52q0 1.8 0.22 2.95 0.22 1.15 0.96 1.81 0.74 0.67 2.24 1.02v0.23h-10.24v-0.23q1.5-0.35 2.24-1.02 0.73-0.66 0.96-1.81 0.22-1.15 0.22-2.95v-20.85q0-1.78-0.22-2.93-0.23-1.14-0.96-1.82-0.74-0.68-2.24-1.01v-0.23h3.93q1.2 0 2.04 0.84 0.85 0.84 0.85 2.04v15.69l12.53-14.17q0.84-1.01 1.2-1.59 0.36-0.59 0.45-0.93 0.08-0.34 0.05-0.57 0-0.05 0-0.1 0.01-0.39-0.42-0.59-0.42-0.2-1.12-0.39v-0.23h7.66v0.23q-2.35 0.4-3.95 1.78-1.6 1.38-2.89 3l-10.56 12.53z"/>
					<path id="&lt;Compound Path&gt;" fill-rule="evenodd" class="s0" d="m354.42 289.69q0.88 2.53 1.96 3.9 1.08 1.37 3.1 1.89v0.23h-3.45q-1.36 0-2.46-0.76-1.1-0.76-1.59-2.05l-3.16-8.27-14.4 0.1-3.54 9.51q-0.7 1.47-2.13 1.47h-2.37v-0.23q1.92-0.45 2.93-1.61 1.01-1.15 1.85-3.61l8.92-23.85q0.24-0.77 0.24-1.26 0-0.89-0.6-1.36-0.6-0.47-1.93-0.7v-0.24h3.02q1.52 0 2.76 0.86 1.24 0.85 1.8 2.28zm-19.65-5.95l13.68-0.09-6.89-18.04z"/>
					<path id="&lt;Compound Path&gt;" class="s0" d="m385.47 288.01h0.28l-0.98 7.7h-23.19l20.38-31.87h-12.06q-2.3 0-3.54 0.77-1.24 0.77-1.92 1.98-0.68 1.2-1.14 2.54-0.03 0.05-0.05 0.09h-0.28l0.47-6.37h23.09l-20.36 31.88h12.18q1.93 0 3.14-0.58 1.22-0.57 1.96-1.48 0.73-0.92 1.14-1.97 0.42-1.05 0.69-2.06 0.1-0.33 0.19-0.63z"/>
					<path id="&lt;Compound Path&gt;" class="s0" d="m425.03 263.09q-1.52 0.32-2.26 1.01-0.74 0.67-0.96 1.82-0.22 1.15-0.22 2.93v20.84q0 1.81 0.22 2.95 0.22 1.15 0.96 1.82 0.74 0.66 2.26 1.02v0.23h-4.57q-0.93 0-1.59-0.65-0.66-0.66-0.66-1.6v-27.89l-13.3 26.44h-0.07q-0.87 0-1.31-0.89l-10-24.1v23.24q0 2.62 0.74 3.73 0.73 1.11 2.7 1.49v0.23h-7.89v-0.23q1.92-0.38 2.67-1.49 0.75-1.11 0.75-3.73v-21.98q0-2.59-0.75-3.72-0.75-1.12-2.67-1.47v-0.24h3.68q1.14 0 2.09 0.59 0.95 0.58 1.46 1.62l9.28 22.83 12.62-25.04h6.82z"/>
					<path id="&lt;Compound Path&gt;" fill-rule="evenodd" class="s0" d="m454.89 289.69q0.89 2.53 1.97 3.9 1.08 1.37 3.09 1.89v0.23h-3.44q-1.36 0-2.46-0.76-1.1-0.76-1.6-2.05l-3.16-8.27-14.4 0.1-3.54 9.51q-0.7 1.47-2.13 1.47h-2.36v-0.23q1.92-0.45 2.93-1.61 1-1.15 1.85-3.61l8.92-23.85q0.23-0.77 0.23-1.26 0-0.89-0.59-1.36-0.61-0.47-1.94-0.7v-0.24h3.02q1.53 0 2.77 0.86 1.24 0.85 1.8 2.28zm-19.65-5.95l13.67-0.09-6.88-18.04z"/>
					<path id="&lt;Compound Path&gt;" class="s0" d="m485.95 288.01h0.28l-0.99 7.7h-23.18l20.37-31.87h-12.06q-2.29 0-3.53 0.77-1.25 0.77-1.93 1.98-0.67 1.2-1.14 2.54-0.03 0.05-0.05 0.09h-0.28l0.47-6.37h23.09l-20.35 31.88h12.18q1.92 0 3.13-0.58 1.22-0.57 1.96-1.48 0.74-0.92 1.15-1.97 0.41-1.05 0.69-2.06 0.09-0.33 0.19-0.63z"/>
					<path id="&lt;Compound Path&gt;" fill-rule="evenodd" class="s0" d="m532.04 283.79q-0.24 2.41-1.2 4.23-0.96 1.81-2.53 3.27 4.33 3.11 9.35 3.98v0.44h-4.83q-1.66 0-3.39-0.68-1.74-0.68-3.47-1.92-2.13 1.34-4.57 1.99-2.43 0.66-4.92 0.66-2.36 0-4.6-0.56-2.23-0.57-3.99-1.74-1.76-1.17-2.8-2.98-1.04-1.82-1.04-4.3 0-1.76 1.11-3.26 1.11-1.5 3.19-2.83 2.07-1.33 4.99-2.6-1.14-1.97-1.72-4.03-0.57-2.06-0.57-3.49 0-2.01 0.72-3.44 0.71-1.43 1.89-2.33 1.18-0.9 2.62-1.33 1.45-0.41 2.9-0.41 1.87-0.01 3.56 0.62 1.68 0.62 2.74 1.95 1.05 1.34 1.05 3.49 0 1.62-1.06 2.83-1.07 1.22-2.68 2.18-1.62 0.96-3.38 1.83-1.59 0.77-2.9 1.55 1.26 2.36 3.14 5.14 1.87 2.77 3.65 4.88 1.73 1.87 3.47 3.14 0.44 0.35 0.88 0.72 1.41-1.33 2.32-3.02 0.92-1.68 1.13-3.98zm-14.05 10.87q1.77 0 3.66-0.51 1.88-0.5 3.62-1.51-2.27-1.82-4.91-5.1-2.63-3.28-4.59-6.12-1.96-2.83-2.19-3.3-2.29 1.1-3.77 2.05-1.47 0.95-2.19 2.09-0.71 1.13-0.71 2.89 0 2.65 0.97 4.46 0.97 1.81 2.56 2.93 1.6 1.11 3.58 1.61 1.97 0.51 3.97 0.51zm1.38-31.41q-1.22 0-2.43 0.59-1.2 0.58-2.02 1.93-0.82 1.34-0.82 3.64 0 1.85 0.38 3.16 0.39 1.31 1.7 3.77 0.99-0.63 1.9-1.19 1.64-0.99 2.9-1.93 1.27-0.95 2-2.1 0.74-1.15 0.74-2.81 0-1.43-0.48-2.58-0.48-1.14-1.45-1.81-0.97-0.67-2.42-0.67z"/>
					<path id="&lt;Compound Path&gt;" class="s0" d="m577.24 262.85h7.99v0.24q-2.46 0.42-3.89 1.75-1.43 1.34-2.81 3.44-0.12 0.17-0.26 0.33l-6.75 9.39v15.53q0 0.92-0.64 1.55-0.65 0.63-1.53 0.63h-4.64v-0.23q1.5-0.36 2.25-1.02 0.75-0.67 0.96-1.82 0.21-1.14 0.21-2.95v-10.14l-6.23-9.86q-0.07-0.09-0.12-0.18-1.59-2.68-3.08-4.29-1.49-1.62-3.99-2.13v-0.24h4.71q1.94 0 3.2 1.74l8.11 12.67 6.6-9.21q0.82-1.1 1.29-1.96 0.47-0.87 0.47-1.5 0-1.13-1.85-1.5z"/>
					<path id="&lt;Compound Path&gt;" fill-rule="evenodd" class="s0" d="m605.58 289.69q0.88 2.53 1.96 3.9 1.08 1.37 3.1 1.89v0.23h-3.45q-1.36 0-2.46-0.76-1.1-0.76-1.59-2.05l-3.16-8.27-14.4 0.1-3.54 9.51q-0.7 1.47-2.13 1.47h-2.37v-0.23q1.92-0.45 2.93-1.61 1.01-1.15 1.85-3.61l8.92-23.85q0.24-0.77 0.24-1.26 0-0.89-0.6-1.36-0.6-0.47-1.93-0.7v-0.24h3.02q1.52 0 2.76 0.86 1.25 0.85 1.8 2.28zm-19.65-5.95l13.68-0.09-6.88-18.04z"/>
					<path id="&lt;Compound Path&gt;" class="s0" d="m636.72 289.27h0.29l-2.06 6.44h-22.44v-0.23q1.5-0.36 2.24-1.02 0.73-0.67 0.96-1.82 0.22-1.14 0.22-2.95v-20.84q0-1.78-0.22-2.93-0.23-1.15-0.96-1.82-0.74-0.69-2.24-1.01v-0.24h4.61q0.92 0 1.56 0.65 0.65 0.64 0.65 1.53v24.66q0 1.81 0.29 2.91 0.29 1.1 1.1 1.61 0.8 0.52 2.3 0.52h5.48q2.32 0 3.89-0.79 1.57-0.78 2.61-2.01 1.05-1.23 1.72-2.66z"/>
					<path id="&lt;Compound Path&gt;" class="s0" d="m639.35 270.5q2.25-3.83 6.14-5.97 3.88-2.15 8.76-2.15 1.98 0 3.63 0.45 1.63 0.44 3.53 1.33 0.05 0.03 0.12 0.05 1.78 0.96 2.5 0.8 0.31-0.15 0.53-0.55 0.23-0.41 0.37-0.89 0.13-0.48 0.27-1.19h0.33v8.9h-0.33q-1.47-4.68-4.4-6.27-1.59-0.87-3.09-1.25-1.5-0.39-3.37-0.39-4.4 0-7.54 1.84-3.14 1.84-4.81 5.1-1.66 3.27-1.66 7.51 0 0.77 0.1 1.59 0.72 6.96 4.61 11.27 3.89 4.31 9.62 4.47 3.4 0 5.88-0.88 2.49-0.88 4.62-2.82l0.37 0.56q-1.31 1.2-2.87 2.13-1.55 0.94-3.59 1.49-2.04 0.55-4.87 0.55-5.3 0-9.14-2.15-3.84-2.16-5.9-5.97-2.06-3.8-2.06-8.74 0-4.99 2.25-8.82z"/>
					<path id="&lt;Compound Path&gt;" class="s0" d="m668.79 262.85h3.51q1.36 0 2.33 0.96 0.97 0.96 0.97 2.32v23.56q0 1.81 0.23 2.95 0.22 1.15 0.96 1.82 0.73 0.66 2.23 1.02v0.23h-10.23v-0.23q1.5-0.36 2.24-1.02 0.73-0.67 0.96-1.82 0.22-1.14 0.22-2.95v-20.84q0-1.78-0.22-2.93-0.23-1.15-0.96-1.82-0.74-0.69-2.24-1.01z"/>
					<path id="&lt;Compound Path&gt;" class="s0" d="m683.71 293.99q0.74-1.11 0.74-3.73v-21.98q0-2.59-0.74-3.72-0.75-1.12-2.67-1.47v-0.24h4.21q2.18 0 3.68 1.83l18.97 25.39v-21.79q0-2.59-0.76-3.72-0.77-1.12-2.68-1.47v-0.24h7.89v0.24q-1.97 0.35-2.7 1.47-0.72 1.13-0.72 3.72v27.43h-1.03l-22.41-29.95v24.5q0 2.62 0.73 3.73 0.74 1.11 2.71 1.49v0.23h-7.89v-0.23q1.92-0.38 2.67-1.49z"/>
				</g>
				<path id="&lt;Path&gt;" class="s0" d="m652.35 295.66l-1.27 2.59c3.35 0.14 4.99 1.3 4.99 2.83 0 2.01-2.02 3.31-5.04 3.31-1.68 0-3.55-0.43-4.75-1.1l0.05-0.39c0.96 0.34 2.06 0.53 3.07 0.53 2.4 0 3.98-1.15 3.98-2.88 0-1.2-0.91-1.96-2.78-1.96l1.46-2.93"/>
			</g>
			<g id="&lt;Group&gt;">
				<g id="&lt;Group&gt;">
					<g id="&lt;Group&gt;">
						<path id="&lt;Compound Path&gt;" fill-rule="evenodd" class="s0" d="m199.28 237.98v1.01c-0.99-0.05-3.11-0.03-3.75 0.81-1.07 1.41 1.08 7.71 1.63 9.57 1 3.34 2.33 6.58 3.47 9.86 0.89 0.08 0.56 0.03 0.66-0.51 1.03-5.54 1.86-18.74 7.42-21.61 2.84-1.46 5.47-0.56 6.91 2.25 3.08 6.02-1.18 18.42-4.85 23.76-2.08 3.02-4.77 5.81-8.77 4.9-1.56 8.02-4.26 18.73-13.46 20.81-6.43 1.45-14.11-1.74-13.25-9.36h4.4c-0.33 4.96 0.78 9.19 6.58 8.77 10.07-0.74 12.32-12.79 13.7-20.76-4.89-7.52-5.93-17.79-9.9-25.53-1.18-2.29-2.62-3.36-5.32-2.96-0.14-0.32 0.3-1.01 0.51-1.01zm11.05-0.27c-3.04 0.7-4.63 7.31-5.21 9.98-1.1 5.08-1.39 10.39-2.37 15.5 1.07 2.66 3.2 3.26 5.47 1.43 3.37-2.71 6.49-12.53 7.17-16.79 0.59-3.64 0.58-11.42-5.06-10.12z"/>
						<path id="&lt;Compound Path&gt;" fill-rule="evenodd" class="s0" d="m171.44 238.03v1.11c-5.37-0.62-5.41 3.58-5.16 7.74 3.87-0.3 6.83 2.74 9.03 5.51 1.64-1.75 9.54-10.78 8.25-12.84l-3.27-0.41v-1.11h12.17v1.11c-1.63-0.14-3.3 0.21-4.76 0.96-2.2 1.13-9.01 9.36-10.72 11.75-0.33 0.46-0.71 0.87-0.74 1.48 5.77 8.56 10.93 17.68 14.38 27.43h-5.72c-1.25-3.22-1.96-6.85-3.04-10.22-1.79-5.61-3.86-11.23-6.91-16.29-2.69 2.3-5.11 4.01-8.69 4.64 0.69 5.35-0.96 13.09 0.25 18.14 0.65 2.71 2.01 2.24 4.13 2.9 0.63 0.19 0.96-0.16 0.8 0.83h-14.75c-0.17-1.25 2.1-0.94 2.96-1.28 1.92-0.76 2.08-2.95 2.22-4.78 0.76-10.2-0.56-21.35-0.06-31.65-0.38-3.25-1.93-4.14-5.12-3.91v-1.11zm-5.16 19.53c3.15 0.1 5.94-2.18 8.08-4.29 0.11-0.63-3.16-4.02-3.9-4.5-0.64-0.4-4.18-1.96-4.18-0.61z"/>
					</g>
				</g>
				<g id="&lt;Group&gt;">
					<g id="&lt;Group&gt;">
						<path id="&lt;Compound Path&gt;" fill-rule="evenodd" class="s0" d="m273.46 279.01h-1.01c0.05-0.98 0.02-3.1-0.82-3.75-1.4-1.07-7.71 1.08-9.56 1.63-3.34 1-6.58 2.33-9.87 3.48-0.07 0.89-0.03 0.55 0.51 0.65 5.54 1.04 18.74 1.87 21.61 7.43 1.47 2.83 0.57 5.47-2.25 6.91-6.01 3.08-18.42-1.19-23.76-4.86-3.01-2.07-5.8-4.76-4.9-8.77-8.01-1.55-18.73-4.25-20.8-13.45-1.46-6.44 1.74-14.11 9.35-13.25v4.39c-4.95-0.33-9.19 0.78-8.77 6.58 0.74 10.07 12.79 12.33 20.77 13.7 7.51-4.88 17.79-5.92 25.53-9.9 2.29-1.17 3.35-2.61 2.96-5.31 0.31-0.15 1.01 0.3 1.01 0.5zm0.26 11.05c-0.7-3.04-7.31-4.62-9.98-5.2-5.07-1.11-10.39-1.4-15.49-2.37-2.67 1.06-3.26 3.2-1.44 5.47 2.72 3.36 12.54 6.48 16.79 7.17 3.65 0.58 11.42 0.57 10.12-5.07z"/>
						<path id="&lt;Compound Path&gt;" fill-rule="evenodd" class="s0" d="m273.4 251.18h-1.1c0.61-5.38-3.59-5.41-7.74-5.17 0.3 3.88-2.74 6.84-5.52 9.04 1.75 1.63 10.78 9.53 12.84 8.25l0.42-3.28 1.1 0.01v12.17h-1.1c0.13-1.64-0.22-3.31-0.96-4.76-1.14-2.21-9.37-9.02-11.75-10.73-0.46-0.33-0.88-0.71-1.49-0.73-8.56 5.76-17.67 10.92-27.43 14.37v-5.71c3.22-1.26 6.85-1.96 10.23-3.04 5.6-1.79 11.23-3.87 16.28-6.92-2.3-2.68-4-5.1-4.63-8.69-5.35 0.69-13.1-0.96-18.15 0.26-2.7 0.65-2.23 2.01-2.89 4.12-0.2 0.64 0.15 0.97-0.84 0.81v-14.75c1.25-0.17 0.94 2.1 1.28 2.95 0.76 1.92 2.96 2.09 4.78 2.22 10.2 0.76 21.36-0.56 31.66-0.05 3.24-0.38 4.13-1.93 3.91-5.13l1.1 0.01zm-19.52-5.17c-0.11 3.16 2.17 5.94 4.29 8.09 0.62 0.1 4.02-3.16 4.49-3.91 0.4-0.63 1.97-4.18 0.61-4.18z"/>
					</g>
				</g>
				<g id="&lt;Group&gt;">
					<g id="&lt;Group&gt;">
						<path id="&lt;Compound Path&gt;" fill-rule="evenodd" class="s0" d="m232.42 348.49v-1.02c0.99 0.05 3.11 0.03 3.75-0.81 1.07-1.4-1.08-7.71-1.63-9.57-1-3.34-2.33-6.57-3.47-9.86-0.89-0.08-0.56-0.03-0.66 0.51-1.04 5.54-1.86 18.74-7.42 21.61-2.84 1.46-5.47 0.57-6.91-2.25-3.08-6.01 1.18-18.42 4.85-23.76 2.08-3.02 4.77-5.81 8.77-4.9 1.55-8.01 4.25-18.73 13.46-20.81 6.43-1.45 14.11 1.75 13.24 9.36h-4.39c0.33-4.96-0.78-9.19-6.58-8.77-10.07 0.74-12.32 12.79-13.7 20.76 4.89 7.52 5.93 17.8 9.9 25.54 1.18 2.28 2.62 3.35 5.31 2.95 0.15 0.32-0.3 1.02-0.5 1.02zm-11.05 0.26c3.04-0.7 4.63-7.31 5.21-9.98 1.1-5.08 1.39-10.39 2.37-15.5-1.07-2.66-3.21-3.25-5.47-1.43-3.37 2.71-6.49 12.53-7.17 16.79-0.59 3.64-0.58 11.42 5.06 10.12z"/>
						<path id="&lt;Compound Path&gt;" fill-rule="evenodd" class="s0" d="m260.26 348.43l-0.01-1.1c5.38 0.61 5.42-3.59 5.17-7.74-3.87 0.3-6.83-2.75-9.03-5.52-1.64 1.75-9.54 10.78-8.26 12.84l3.28 0.42v1.1h-12.17v-1.1c1.63 0.13 3.3-0.22 4.75-0.96 2.21-1.14 9.02-9.37 10.73-11.76 0.33-0.46 0.71-0.87 0.74-1.48-5.77-8.56-10.93-17.68-14.38-27.43h5.72c1.25 3.22 1.95 6.85 3.03 10.23 1.79 5.6 3.87 11.22 6.92 16.28 2.69-2.3 5.1-4.01 8.69-4.64-0.69-5.35 0.96-13.09-0.25-18.14-0.65-2.71-2.01-2.24-4.13-2.89-0.63-0.2-0.96 0.15-0.8-0.84h14.75c0.16 1.25-2.11 0.94-2.96 1.28-1.92 0.76-2.09 2.95-2.22 4.78-0.76 10.2 0.56 21.36 0.06 31.66 0.38 3.24 1.92 4.13 5.12 3.91v1.1zm5.16-19.53c-3.15-0.1-5.94 2.18-8.09 4.29-0.1 0.63 3.17 4.03 3.91 4.5 0.63 0.4 4.18 1.96 4.18 0.61z"/>
					</g>
				</g>
				<g id="&lt;Group&gt;">
					<g id="&lt;Group&gt;">
						<path id="&lt;Compound Path&gt;" fill-rule="evenodd" class="s0" d="m158.24 307.45h1.01c-0.05 0.98-0.02 3.11 0.82 3.75 1.4 1.07 7.71-1.08 9.56-1.63 3.34-1 6.58-2.33 9.86-3.48 0.08-0.89 0.04-0.55-0.51-0.65-5.53-1.04-18.73-1.87-21.6-7.43-1.47-2.83-0.57-5.47 2.24-6.91 6.02-3.07 18.43 1.19 23.76 4.86 3.02 2.07 5.81 4.76 4.91 8.77 8.01 1.55 18.73 4.25 20.8 13.45 1.46 6.44-1.74 14.11-9.35 13.25v-4.39c4.95 0.33 9.19-0.78 8.76-6.58-0.73-10.07-12.78-12.33-20.76-13.7-7.51 4.88-17.79 5.92-25.53 9.9-2.29 1.17-3.36 2.61-2.96 5.31-0.31 0.15-1.01-0.3-1.01-0.5zm-0.26-11.05c0.7 3.04 7.31 4.62 9.98 5.21 5.07 1.1 10.38 1.39 15.49 2.36 2.67-1.06 3.26-3.2 1.44-5.46-2.72-3.37-12.54-6.49-16.79-7.18-3.65-0.58-11.42-0.57-10.12 5.07z"/>
						<path id="&lt;Compound Path&gt;" fill-rule="evenodd" class="s0" d="m158.3 335.28h1.1c-0.61 5.38 3.59 5.42 7.74 5.17-0.3-3.88 2.74-6.84 5.52-9.04-1.76-1.63-10.79-9.53-12.84-8.25l-0.42 3.28-1.1-0.01v-12.16l1.1-0.01c-0.14 1.64 0.21 3.31 0.96 4.76 1.13 2.21 9.37 9.02 11.75 10.73 0.46 0.33 0.88 0.71 1.49 0.74 8.55-5.77 17.67-10.93 27.43-14.38v5.72c-3.22 1.25-6.85 1.95-10.23 3.03-5.6 1.79-11.23 3.87-16.28 6.92 2.3 2.68 4 5.1 4.63 8.69 5.35-0.69 13.09 0.96 18.15-0.26 2.7-0.65 2.23-2.01 2.89-4.12 0.2-0.63-0.15-0.97 0.84-0.81v14.76c-1.25 0.16-0.95-2.11-1.28-2.96-0.77-1.92-2.96-2.09-4.78-2.22-10.2-0.76-21.36 0.56-31.66 0.05-3.24 0.39-4.13 1.93-3.91 5.13h-1.1zm19.52 5.16c0.11-3.16-2.18-5.94-4.29-8.09-0.63-0.1-4.02 3.17-4.49 3.91-0.4 0.63-1.97 4.18-0.61 4.18z"/>
					</g>
				</g>
			</g>
			<g id="&lt;Group&gt;">
				<path id="&lt;Compound Path&gt;" class="s0" d="m425.65 339.71v-23.61h1.46v23.61z"/>
			</g>
		</g>
		<g id="&lt;Group&gt;">
		</g>
	</g>
</svg>